<svg xmlns="http://www.w3.org/2000/svg" width="7600" height="4650" viewBox="0 0 7600 4650">
  <defs>
    <style>
      .cls-1 {
        fill: #f3f3f3;
        fill-rule: evenodd;
      }
    </style>
  </defs>
  <path id="APP" class="cls-1" d="M1889.35,646.655q-153.4-92.042-343.62-141.129-190.23-49.082-392.71-49.089t-392.7,49.089Q570.09,554.628,416.7,646.655L576.233,990.274q165.674-92.041,335.443-126.8V1920.91H1394.37V863.472q169.77,34.768,335.44,126.8ZM2755.12,1953.63q231.12,0,415.21-96.12t288.4-266.92q104.3-170.775,104.31-385.55,0-214.755-104.31-385.548-104.34-170.781-288.4-266.918-184.08-96.136-415.21-96.137t-415.2,96.137q-184.08,96.136-288.39,266.918-104.325,170.781-104.31,385.548,0,214.77,104.31,385.55t288.39,266.92q184.1,96.12,415.2,96.12h0Zm0-390.65q-89.985,0-162.6-43.98-72.63-43.965-115.56-124.76-42.96-80.79-42.95-189.2,0-108.39,42.95-189.19,42.93-80.8,115.56-124.766,72.615-43.972,162.6-43.98t162.61,43.98q72.615,43.973,115.57,124.766,42.93,80.8,42.95,189.19,0,108.42-42.95,189.2T2917.73,1519q-72.63,43.995-162.61,43.98h0Zm1067.46,357.93h705.64q239.31,0,422.36-86.91,183.075-86.94,284.32-248.51t101.24-380.45q0-218.835-101.24-380.424T4950.58,576.105q-183.06-86.933-422.36-86.932H3822.58V1920.91Zm482.71-376.34V865.512h202.48q155.445,0,248.5,88.973t93.07,250.555q0,161.6-93.07,250.56-93.06,88.98-248.5,88.97H4305.29Zm2027.52,409.06q231.1,0,415.21-96.12,184.08-96.135,288.39-266.92t104.32-385.55q0-214.755-104.32-385.548T6748.02,552.574q-184.08-96.136-415.21-96.137t-415.2,96.137q-184.08,96.136-288.39,266.918T5524.9,1205.04q0,214.77,104.32,385.55,104.295,170.79,288.39,266.92t415.2,96.12h0Zm0-390.65q-90,0-162.61-43.98-72.615-43.965-115.55-124.76-42.96-80.79-42.96-189.2,0-108.39,42.96-189.19,42.93-80.8,115.55-124.766t162.61-43.98q89.985,0,162.6,43.98,72.63,43.973,115.58,124.766,42.93,80.8,42.95,189.19,0,108.42-42.95,189.2T6495.41,1519q-72.615,43.995-162.6,43.98h0ZM1762.39,2281.67q-257.28,0-454.01,102.16-196.755,102.15-306.45,297.64-109.735,195.48-109.724,465.36v940.8H1477.37V3731.99h559.95v355.64h595.26v-940.8q0-269.88-109.72-465.36T2216.4,2383.83q-196.755-102.165-454.01-102.16h0ZM1477.37,3283.03V3096.38q0-163.965,76.94-248.44,76.92-84.51,203.03-84.5t203.04,84.5q76.92,84.495,76.94,248.44v186.65H1477.37Zm2402.45-960.99h-850V4087.63h595.27V3653.81h254.73q244.665,0,426.28-80.72,181.6-80.7,279.98-232.06,98.34-151.32,98.36-353.11,0-201.78-98.36-353.12-98.385-151.335-279.98-232.04t-426.28-80.72h0Zm-37.83,872.71h-216.9V2781.08h216.9q121.05,0,181.6,54.24,60.525,54.255,60.54,152.6,0,98.385-60.54,152.61t-181.6,54.22h0Zm1988.05-872.71h-850V4087.63h595.27V3653.81h254.73q244.665,0,426.28-80.72,181.605-80.7,279.98-232.06,98.34-151.32,98.36-353.11,0-201.78-98.36-353.12-98.385-151.335-279.98-232.04t-426.28-80.72h0Zm-37.83,872.71h-216.9V2781.08h216.9q121.05,0,181.6,54.24,60.525,54.255,60.54,152.6,0,98.385-60.54,152.61-60.555,54.225-181.6,54.22h0Z"/>
</svg>
